<svg width="139" height="20" viewBox="0 0 139 20" fill="none" xmlns="http://www.w3.org/2000/svg">
<g clip-path="url(#clip0_661_731)">
<path d="M37.7531 15.847C40.6051 15.847 42.9051 14.225 43.7051 11.631H39.8081C39.4321 12.296 38.6681 12.697 37.7531 12.697C36.5161 12.697 35.6881 12.023 35.4331 10.719H43.8731C43.9241 10.367 43.9541 10.025 43.9541 9.682C43.9541 6.347 41.4171 3.732 37.7531 3.732C34.1851 3.732 31.5781 6.296 31.5781 9.781C31.5781 13.254 34.2061 15.847 37.7531 15.847ZM40.0971 8.55H35.5011C35.8181 7.421 36.6111 6.801 37.7531 6.801C38.9341 6.801 39.7531 7.413 40.0971 8.55ZM51.0431 15.846C52.3631 15.846 53.5431 15.412 54.4731 14.658L54.8091 15.462H57.8361V4.093H54.9171L54.5171 4.973C53.5771 4.198 52.3821 3.751 51.0431 3.751C47.5671 3.751 45.0821 6.256 45.0821 9.777C45.0821 13.31 47.5671 15.847 51.0431 15.847V15.846ZM51.5671 12.379C50.1001 12.379 49.0221 11.271 49.0221 9.786C49.0221 8.311 50.0911 7.203 51.5671 7.203C53.0331 7.203 54.1111 8.311 54.1111 9.786C54.1111 11.271 53.0331 12.379 51.5671 12.379ZM64.6901 15.846C67.7101 15.846 69.7151 14.292 69.7151 11.916C69.7151 9.033 67.3281 8.66 65.5321 8.341C64.4521 8.148 63.5821 7.997 63.5821 7.351C63.5821 6.824 64.0041 6.513 64.6321 6.513C65.3421 6.513 65.8291 6.85 65.8291 7.576H69.4961C69.4521 5.273 67.5761 3.733 64.6801 3.733C61.7681 3.733 59.8261 5.203 59.8261 7.483C59.8261 10.24 62.1631 10.772 63.9261 11.057C65.0181 11.238 65.8781 11.425 65.8781 12.081C65.8781 12.668 65.3351 12.961 64.7621 12.961C64.0201 12.961 63.4421 12.578 63.4421 11.747H59.6721C59.7081 14.21 61.5911 15.847 64.6901 15.847V15.846ZM72.7901 19.704C75.7261 19.704 77.1341 18.447 78.6671 14.968L83.4311 4.105H79.2251L76.9761 10.368L74.5641 4.105H70.3091L75.0071 14.535C74.4771 15.949 74.0241 16.339 72.5271 16.339H71.4491V19.704H72.7901ZM91.2941 15.846C94.7941 15.846 97.2671 13.331 97.2671 9.798C97.2671 6.265 94.7951 3.75 91.2941 3.75C90.2977 3.74223 89.319 4.01383 88.4691 4.534V0H84.5991V15.474H87.4961L87.8661 14.63C88.7891 15.401 89.9681 15.846 91.2941 15.846ZM90.7711 12.379C89.3041 12.379 88.2261 11.271 88.2261 9.799C88.2261 8.313 89.3041 7.205 90.7711 7.205C92.2371 7.205 93.3151 8.313 93.3151 9.798C93.3151 11.271 92.2281 12.379 90.7711 12.379ZM104.369 15.846C105.689 15.846 106.869 15.412 107.799 14.658L108.135 15.462H111.162V4.093H108.244L107.843 4.973C106.904 4.198 105.708 3.751 104.369 3.751C100.893 3.751 98.4091 6.256 98.4091 9.777C98.4091 13.31 100.893 15.847 104.369 15.847V15.846ZM104.893 12.379C103.426 12.379 102.348 11.271 102.348 9.786C102.348 8.311 103.418 7.203 104.893 7.203C106.36 7.203 107.438 8.311 107.438 9.786C107.438 11.271 106.36 12.379 104.893 12.379ZM117.546 15.474V9.403C117.546 7.956 118.248 7.103 119.469 7.103C120.455 7.103 120.952 7.76 120.952 9.083V15.473H124.867V8.543C124.867 5.646 123.134 3.77 120.494 3.77C119.024 3.77 117.761 4.335 116.914 5.278L116.377 4.106H113.63V15.475H117.546V15.474ZM131.294 15.474V10.666L134.142 15.474H138.758L134.856 9.524L138.399 4.105H134.002L131.294 8.559V0H127.378V15.474H131.294Z" fill="white"/>
<path fill-rule="evenodd" clip-rule="evenodd" d="M10.802 0L0 19.704H5.986L16.789 0H10.802Z" fill="url(#paint0_linear_661_731)"/>
<path opacity="0.5" fill-rule="evenodd" clip-rule="evenodd" d="M18.1702 0L7.36719 19.704H13.3532L24.1562 0H18.1702Z" fill="url(#paint1_linear_661_731)"/>
<path opacity="0.15" fill-rule="evenodd" clip-rule="evenodd" d="M25.5383 0L14.7363 19.704H20.7223L31.5243 0H25.5383Z" fill="url(#paint2_linear_661_731)"/>
</g>
<defs>
<linearGradient id="paint0_linear_661_731" x1="1212.08" y1="-0.000114289" x2="48.4379" y2="1812.87" gradientUnits="userSpaceOnUse">
<stop stop-color="#33D35E"/>
<stop offset="1" stop-color="#2AB6D9"/>
</linearGradient>
<linearGradient id="paint1_linear_661_731" x1="1219.45" y1="-0.000114289" x2="55.8051" y2="1812.87" gradientUnits="userSpaceOnUse">
<stop stop-color="#33D35E"/>
<stop offset="1" stop-color="#2AB6D9"/>
</linearGradient>
<linearGradient id="paint2_linear_661_731" x1="1226.75" y1="-0.000114289" x2="63.0731" y2="1812.81" gradientUnits="userSpaceOnUse">
<stop stop-color="#33D35E"/>
<stop offset="1" stop-color="#2AB6D9"/>
</linearGradient>
<clipPath id="clip0_661_731">
<rect width="139" height="20" fill="white"/>
</clipPath>
</defs>
</svg>
